<?xml version="1.0" encoding="UTF-8" standalone="no"?>
<svg
   xmlns:dc="http://purl.org/dc/elements/1.1/"
   xmlns:cc="http://creativecommons.org/ns#"
   xmlns:rdf="http://www.w3.org/1999/02/22-rdf-syntax-ns#"
   xmlns:svg="http://www.w3.org/2000/svg"
   xmlns="http://www.w3.org/2000/svg"
   viewBox="0 0 529.33331 529.33331"
   height="529.33331"
   width="529.33331"
   xml:space="preserve"
   id="svg2"
   version="1.1"><metadata
     id="metadata8"><rdf:RDF><cc:Work
         rdf:about=""><dc:format>image/svg+xml</dc:format><dc:type
           rdf:resource="http://purl.org/dc/dcmitype/StillImage" /></cc:Work></rdf:RDF></metadata><defs
     id="defs6" /><g
     transform="matrix(1.3333333,0,0,-1.3333333,0,529.33333)"
     id="g10"><g
       transform="scale(0.1)"
       id="g12"><path
         id="path14"
         style="fill:#ffffff;fill-opacity:1;fill-rule:nonzero;stroke:none"
         d="M 0,1.48047 H 3968.52 V 3970.0005 H 0 Z" /><path
         id="path16"
         style="fill:#4090ba;fill-opacity:1;fill-rule:nonzero;stroke:none"
         d="M 2833.32,2721.52 H 2647.27 V 2550.59 H 2459.1 v 172.57 h 186.84 v 170.94 h 187.38 z m -555.43,-351.44 h -188.16 v 172.539 h 188.16 z m 931.56,522.93 v 175.08 l -188.2,-0.55 v 171.17 l 186.91,0.51 v 172.58 h -187.38 v 172.38 H 2832.62 V 3411.6 h 188.9 v -172.19 h -186.87 v -172.57 h -186.56 v 172.57 h -188.6 v 171.76 h -188.16 l 1.25,-208.47 V 3066.84 H 2460 v -171.33 h -188.16 v 171.33 h -169.61 v 172.57 h -188.17 v -65.54 c 10.55,-397.27 -175.27,-676.76 -423.63,-678.52 -216.72,-1.56 -291.33,137.77 -295.78,236.76 -4.96,110.39 72.54,194.14 154.06,191.25 69.26,-2.42 115.51,-51.95 109.73,-98.16 -5.78,-46.18 -39.06,-69.11 -51.96,-60.63 -25.27,16.64 0.71,32.85 2.86,55.2 3.71,38.43 -26.41,41.83 -43.87,42.89 -32.27,1.91 -84.02,-23.91 -84.02,-81.53 0,-103.71 83.43,-133.24 145.66,-133.24 116.21,0 213.16,85.9 214.41,220.04 1.02,108.52 -49.18,365 -374.88,365 -271.21,0 -579.609,-205.63 -586.331,-582.03 -10.188,-573.05 400.121,-977.46 976.021,-976.64 611.95,0.86 1109.18,255.97 1364.1,718.79 v 152.81 h 188.63 v 172.58 h -188.63 v 3.08 h 1.05 v 171.29 h 187.93 V 2718.2 h 188.17 v 174.81 h -188.13" /><path
         id="path18"
         style="fill:#4090ba;fill-opacity:1;fill-rule:nonzero;stroke:none"
         d="m 3204.96,3579.92 h 188.16 v 172.578 h -188.16 z" /><path
         id="path20"
         style="fill:#4090ba;fill-opacity:1;fill-rule:nonzero;stroke:none"
         d="m 1907.5,3420.04 h 188.16 v 172.582 H 1907.5 Z" /><path
         id="path22"
         style="fill:#4090ba;fill-opacity:1;fill-rule:nonzero;stroke:none"
         d="m 2462.27,3584.76 h 188.16 v 172.578 h -188.16 z" /><path
         id="path24"
         style="fill:#4090ba;fill-opacity:1;fill-rule:nonzero;stroke:none"
         d="m 182.461,1494.8 h 96.328 l -3.199,-370.31 h -96.328 l 3.199,370.31" /><path
         id="path26"
         style="fill:#4090ba;fill-opacity:1;fill-rule:nonzero;stroke:none"
         d="m 368.711,1494.8 h 96.328 l -3.199,-370.31 h -96.328 l 3.199,370.31" /><path
         id="path28"
         style="fill:#4090ba;fill-opacity:1;fill-rule:nonzero;stroke:none"
         d="m 649.691,1336.41 h 43.36 c 23,0 55.109,6.4 55.109,43.9 0,30.47 -18.75,43.87 -57.262,43.87 H 651.84 Z m -92.582,158.39 h 142.34 c 124.141,0 145.039,-71.17 145.039,-112.93 0,-78.63 -54.566,-116.09 -128.976,-116.09 h -62.071 l -2.152,-141.29 H 553.91 l 3.199,370.31" /><path
         id="path30"
         style="fill:#4090ba;fill-opacity:1;fill-rule:nonzero;stroke:none"
         d="m 905,1222.97 h 154.102 v 73.832 H 905 Z" /><path
         id="path32"
         style="fill:#4090ba;fill-opacity:1;fill-rule:nonzero;stroke:none"
         d="m 1149.06,1494.8 h 255.78 v -77.07 h -158.9 l -1.1,-71.17 h 158.4 v -73.83 H 1244.3 l -1.06,-71.17 h 158.4 v -77.07 h -255.78 l 3.2,370.31" /><path
         id="path34"
         style="fill:#4090ba;fill-opacity:1;fill-rule:nonzero;stroke:none"
         d="m 1719.02,1142.7 c -25.66,-16.06 -67.97,-27.82 -98.98,-27.82 -85.63,0 -147.19,49.22 -147.19,138.05 0,90.94 61.02,150.9 153.05,150.9 32.11,0 70.66,-10.16 91.52,-23.52 l -29.96,-61.01 c -13.91,5.86 -28.91,10.7 -43.91,10.7 -46.52,0 -77.57,-27.85 -77.57,-72.27 0,-38.51 29.96,-69.02 69.57,-69.02 17.65,0 35.31,8.01 50.31,15.51 l 33.16,-61.52" /><path
         id="path36"
         style="fill:#4090ba;fill-opacity:1;fill-rule:nonzero;stroke:none"
         d="m 2129.57,1194.06 c 19.26,-7.5 52.97,-15 75.98,-15 13.4,0 31.05,8.05 31.05,21.41 0,11.8 -4.8,16.05 -51.91,29.45 -45.47,12.81 -73.28,34.22 -73.28,84.53 0,64.77 60.97,89.38 117.69,89.38 46.02,0 85.08,-10.71 95.78,-17.66 l -17.11,-57.81 c -18.2,4.84 -39.61,11.25 -65.82,11.25 -14.45,0 -34.25,-5.86 -34.25,-21.41 0,-11.25 4.8,-18.2 34.25,-24.06 52.43,-10.7 90.98,-27.85 90.98,-87.77 0,-69.57 -60.47,-91.49 -125.78,-91.49 -40.12,0 -85.63,11.21 -98.44,17.66 l 20.86,61.52" /><path
         id="path38"
         style="fill:#4090ba;fill-opacity:1;fill-rule:nonzero;stroke:none"
         d="m 2480.66,1197.27 c 9.61,-10.71 29.42,-14.97 43.32,-14.97 43.36,0 62.62,34.77 62.62,75.98 0,36.41 -13.9,68.48 -55.66,68.48 -17.66,0 -34.77,-7.46 -48.13,-18.71 z m -87.77,196.95 h 88.28 v -19.3 c 19.3,15.55 45.51,27.31 75.47,28.91 81.88,0 123.09,-70.63 123.09,-136.45 0,-84.02 -50.32,-152.5 -137,-152.5 -21.95,0 -43.35,5.35 -61.01,14.42 l -1.06,-139.652 h -89.92 l 2.15,404.572" /><path
         id="path40"
         style="fill:#4090ba;fill-opacity:1;fill-rule:nonzero;stroke:none"
         d="m 2749.34,1525.86 h 93.12 l -0.55,-161.09 c 21.41,20.85 54.07,39.06 87.23,39.06 57.27,0 88.32,-31.56 88.32,-105.43 0,-55.12 -0.55,-114.49 -1.05,-173.91 h -93.13 c 0.51,51.92 1.06,104.34 1.06,160 0,21.96 -5.9,39.06 -33.71,39.06 -15,0 -36.41,-12.85 -48.72,-24.6 l -2.14,-174.46 h -93.09 l 2.66,401.37" /><path
         id="path42"
         style="fill:#4090ba;fill-opacity:1;fill-rule:nonzero;stroke:none"
         d="m 3274.38,1293.05 c 0,27.85 -13.4,53 -44.42,53 -29.45,0 -51.91,-26.25 -57.81,-53 z M 3342.85,1155 c -31.56,-26.76 -79.72,-40.12 -122.54,-40.12 -97.93,0 -142.34,69.53 -142.34,138.56 0,81.36 60.98,150.39 145.04,150.39 102.73,0 134.84,-72.78 134.84,-165.35 h -186.8 c 0,-20.86 13.4,-56.18 64.77,-56.18 32.66,0 50.86,9.61 76.02,26.76 l 31.01,-54.06" /><path
         id="path44"
         style="fill:#4090ba;fill-opacity:1;fill-rule:nonzero;stroke:none"
         d="m 3420.51,1394.22 h 93.08 v -38.01 h 1.1 c 13.9,23.01 32.11,45.51 68.51,45.51 10.16,0 20.86,-1.1 30.47,-3.24 l -12.3,-92.03 c -9.1,2.65 -19.26,5.35 -33.17,5.35 -31.05,0 -55.11,-26.25 -55.11,-31.57 l -1.61,-155.74 h -93.12 l 2.15,269.73" /><path
         id="path46"
         style="fill:#4090ba;fill-opacity:1;fill-rule:nonzero;stroke:none"
         d="m 3826.68,1293.05 c 0,27.85 -13.36,53 -44.41,53 -29.42,0 -51.92,-26.25 -57.78,-53 z M 3895.2,1155 c -31.57,-26.76 -79.73,-40.12 -122.54,-40.12 -97.93,0 -142.39,69.53 -142.39,138.56 0,81.36 61.02,150.39 145.04,150.39 102.78,0 134.89,-72.78 134.89,-165.35 h -186.8 c 0,-20.86 13.4,-56.18 64.76,-56.18 32.66,0 50.86,9.61 76.02,26.76 L 3895.2,1155" /><path
         id="path48"
         style="fill:#4090ba;fill-opacity:1;fill-rule:nonzero;stroke:none"
         d="m 1978.91,1191.02 h -133.25 v 133.242 h 133.25 z m -68.79,212.81 c -99.53,0 -150.9,-63.13 -150.9,-144.49 0,-81.33 51.37,-144.46 150.9,-144.46 99.53,0 150.9,63.13 150.9,144.46 0,81.36 -51.37,144.49 -150.9,144.49" /><g
         transform="scale(10)"
         id="g50"><text
           id="text54"
           style="font-variant:normal;font-weight:normal;font-size:42.32730103px;font-family:LucidaSansUnicode;-inkscape-font-specification:LucidaSansUnicode;writing-mode:lr-tb;fill:#333333;fill-opacity:1;fill-rule:nonzero;stroke:none"
           transform="matrix(1,0,0,-1,22.918,48.7129)"><tspan
             id="tspan52"
             y="0"
             x="0 31.703148 55.067818 70.898224 94.262894 107.63832 144.08212 167.44679 184.75867 209.47781 233.05411 248.88452 275.50839 287.741 311.10565 332.77722">Data Marketplace</tspan></text>
</g></g></g></svg>